<svg viewBox="0 0 400 300" xmlns="http://www.w3.org/2000/svg">
  <!-- Fondo con patrón técnico -->
  <defs>
    <pattern id="grid" width="10" height="10" patternUnits="userSpaceOnUse">
      <path d="M 10 0 L 0 0 0 10" fill="none" stroke="#f0f0f0" stroke-width="0.5"/>
    </pattern>
    <linearGradient id="screenGlow" x1="0%" y1="0%" x2="0%" y2="100%">
      <stop offset="0%" style="stop-color:#a8d8ff;stop-opacity:0.8"/>
      <stop offset="100%" style="stop-color:#2196f3;stop-opacity:0.3"/>
    </linearGradient>
  </defs>
  
  <rect width="400" height="300" fill="#ffffff"/>
  <rect width="400" height="300" fill="url(#grid)"/>
  
  <!-- Monitor/Pantalla -->
  <g transform="translate(200, 80)">
    <!-- Base del monitor -->
    <path d="M -40 80 L 40 80 L 30 100 L -30 100 Z" fill="#2c3e50"/>
    <!-- Marco del monitor -->
    <rect x="-100" y="-60" width="200" height="130" rx="5" fill="#34495e"/>
    <!-- Pantalla -->
    <rect x="-95" y="-55" width="190" height="120" fill="url(#screenGlow)"/>
    <!-- Detalles de la pantalla -->
    <circle cx="90" cy="-50" r="2" fill="#95a5a6"/>
    <rect x="-80" y="-45" width="160" height="90" fill="none" stroke="#ffffff" stroke-width="0.5"/>
  </g>

  <!-- Componentes de PC -->
  <!-- RAM -->
  <g transform="translate(80, 150)">
    <rect x="-30" y="-15" width="60" height="30" fill="#95a5a6"/>
    <!-- Chips de memoria -->
    <rect x="-25" y="-10" width="10" height="20" fill="#2c3e50"/>
    <rect x="-10" y="-10" width="10" height="20" fill="#2c3e50"/>
    <rect x="5" y="-10" width="10" height="20" fill="#2c3e50"/>
    <rect x="20" y="-10" width="10" height="20" fill="#2c3e50"/>
    <!-- Contactos dorados -->
    <rect x="-30" y="12" width="60" height="3" fill="#d4af37"/>
  </g>

  <!-- Tarjeta Gráfica -->
  <g transform="translate(320, 150)">
    <rect x="-60" y="-30" width="120" height="60" fill="#2c3e50"/>
    <!-- Ventiladores -->
    <circle cx="-30" cy="0" r="20" fill="#95a5a6"/>
    <circle cx="30" cy="0" r="20" fill="#95a5a6"/>
    <!-- Detalles ventiladores -->
    <path d="M -30 0 L -45 -5 L -45 5 Z" fill="#7f8c8d" transform="rotate(0, -30, 0)"/>
    <path d="M -30 0 L -45 -5 L -45 5 Z" fill="#7f8c8d" transform="rotate(120, -30, 0)"/>
    <path d="M -30 0 L -45 -5 L -45 5 Z" fill="#7f8c8d" transform="rotate(240, -30, 0)"/>
    <path d="M 30 0 L 45 -5 L 45 5 Z" fill="#7f8c8d" transform="rotate(0, 30, 0)"/>
    <path d="M 30 0 L 45 -5 L 45 5 Z" fill="#7f8c8d" transform="rotate(120, 30, 0)"/>
    <path d="M 30 0 L 45 -5 L 45 5 Z" fill="#7f8c8d" transform="rotate(240, 30, 0)"/>
  </g>

  <!-- Mouse Gaming -->
  <g transform="translate(80, 250)">
    <path d="M -20 -30 C -25 -25, -25 25, -20 30 L 20 30 C 25 25, 25 -25, 20 -30 Z" fill="#34495e"/>
    <!-- Botones -->
    <path d="M -20 -30 L 0 -30 L 0 0 L -20 0 C -22 -15, -22 -15, -20 -30" fill="#2c3e50"/>
    <path d="M 0 -30 L 20 -30 C 22 -15, 22 -15, 20 0 L 0 0 Z" fill="#2c3e50"/>
    <!-- Scroll wheel -->
    <rect x="-2" y="-20" width="4" height="10" fill="#95a5a6"/>
    <!-- LED RGB simulado -->
    <path d="M -18 10 L 18 10" stroke="#ff0000" stroke-width="2" opacity="0.5"/>
  </g>

  <!-- Teclado Mecánico -->
  <g transform="translate(320, 250)">
    <rect x="-50" y="-25" width="100" height="50" rx="5" fill="#34495e"/>
    <!-- Teclas -->
    <g>
      <rect x="-45" y="-20" width="8" height="8" rx="2" fill="#95a5a6"/>
      <rect x="-35" y="-20" width="8" height="8" rx="2" fill="#95a5a6"/>
      <rect x="-25" y="-20" width="8" height="8" rx="2" fill="#95a5a6"/>
      <rect x="-45" y="-10" width="8" height="8" rx="2" fill="#95a5a6"/>
      <rect x="-35" y="-10" width="8" height="8" rx="2" fill="#95a5a6"/>
      <rect x="-25" y="-10" width="8" height="8" rx="2" fill="#95a5a6"/>
      <rect x="-45" y="0" width="8" height="8" rx="2" fill="#95a5a6"/>
      <rect x="-35" y="0" width="8" height="8" rx="2" fill="#95a5a6"/>
      <rect x="-25" y="0" width="8" height="8" rx="2" fill="#95a5a6"/>
    </g>
    <!-- LED indicadores -->
    <circle cx="30" cy="-15" r="2" fill="#27ae60"/>
    <circle cx="40" cy="-15" r="2" fill="#e74c3c"/>
  </g>

  <!-- Detalles técnicos adicionales -->
  <g>
    <!-- Líneas de conexión -->
    <path d="M 150 150 Q 200 150, 250 150" stroke="#95a5a6" stroke-width="0.5" fill="none"/>
    <path d="M 150 200 Q 200 200, 250 200" stroke="#95a5a6" stroke-width="0.5" fill="none"/>
    <!-- Circuitos impresos -->
    <path d="M 50 120 L 70 120 L 70 140 L 90 140" stroke="#27ae60" stroke-width="0.5" fill="none"/>
    <path d="M 280 120 L 300 120 L 300 140 L 320 140" stroke="#27ae60" stroke-width="0.5" fill="none"/>
  </g>
</svg>
